<svg width="642" height="119" viewBox="0 0 642 119" fill="none" xmlns="http://www.w3.org/2000/svg">
<path d="M628.133 8.91717C621.869 12.3892 609.653 18.3231 594.199 21.9009C575.368 26.2607 551.634 27.142 528.021 15.6938C482.209 -6.5163 461.469 3.51375 458.373 5.31617C458.263 5.60546 458.106 6.02304 457.907 6.55235L457.907 6.55276C456.433 10.4817 452.388 20.4986 448.723 29.5068C446.888 34.0168 445.144 38.2824 443.86 41.4205C443.432 42.4659 443.055 43.3862 442.742 44.1488C455.44 42.6132 467.782 44.9319 488.13 50.6469C492.333 51.8274 496.4 53.0734 500.465 54.3188C517.858 59.6472 535.211 64.9637 562.993 65.0838C578.519 65.1506 596.432 56.1197 611.365 46.1781C623.748 37.9342 633.878 29.2056 638.576 24.9673C631.167 24.9987 624.892 24.8987 622.932 24.8629M628.133 8.91717L622.932 24.8629M628.133 8.91717L621.29 22.0966C620.649 23.3292 621.51 24.8375 622.932 24.8629M628.133 8.91717L622.932 24.8629M623.952 23.4802L623.954 23.4769C623.953 23.4784 623.952 23.48 623.951 23.4815L623.952 23.4802Z" fill="url(#paint0_linear)" stroke="#17171D" stroke-width="3"/>
<path fill-rule="evenodd" clip-rule="evenodd" d="M530.653 29.8295C532.381 26.4261 534.35 25.8629 535.812 26.0247C536.444 26.0793 537.296 27.3664 537.947 28.6022C540.06 36.7305 536.145 51.6462 535.46 52.6463C533.101 56.4213 528.992 55.6875 530.572 51.6052C531.312 49.1241 532.103 46.8694 532.103 46.8694L526.783 46.2523C522.566 54.3589 518.821 50.9406 521.003 47.4403C523.338 43.3386 528.316 34.358 530.653 29.8295ZM528.849 40.2643L534.092 41.1824C534.092 41.1824 535.589 31.9501 533.946 32.9179L528.849 40.2643Z" fill="white"/>
<path fill-rule="evenodd" clip-rule="evenodd" d="M558.946 55.471C560.72 56.2709 564.977 55.307 564.697 50.6023C565.241 43.8714 553.02 40.6288 552.55 40.1592C552.081 39.6896 552.081 38.7504 548.64 40.6417C546.446 40.6288 551.717 44.9513 551.76 44.7858C551.76 44.7858 561.039 47.9312 559.125 50.992C556.458 52.6949 557.967 55.0393 558.946 55.471Z" fill="white"/>
<path fill-rule="evenodd" clip-rule="evenodd" d="M549.733 42.9768C547.949 42.1993 545.629 36.5168 549.303 33.5652C553.925 28.6419 561.942 33.5652 561.942 33.5652C561.942 33.5652 565.34 34.9507 564.29 37.7915C563.24 40.6323 559.594 37.3542 559.594 37.3542C556.499 35.7375 552.754 34.7258 551.771 38.1995C551.617 38.7457 552.738 40.1268 552.55 41.0984C552.268 42.5585 550.32 43.2384 549.733 42.9768Z" fill="white"/>
<path fill-rule="evenodd" clip-rule="evenodd" d="M547.854 46.2961C545.976 46.82 543.356 50.3187 546.647 53.7955C550.634 59.3804 562.1 55.3344 562.1 55.3344C558.403 52.429 560.448 50.7027 560.448 50.7027L560.533 50.9598C560.533 50.9598 559.594 50.0206 560.448 50.7027C557.156 51.8797 550.236 53.1256 549.695 49.5096C550.618 46.4633 548.884 45.9994 547.854 46.2961Z" fill="white"/>
<path fill-rule="evenodd" clip-rule="evenodd" d="M501.362 30C500.362 32 501.969 28.5017 498.726 35.9552C497.951 37.7757 496.059 41.1128 495.834 41.5866C494.041 44.9498 497.645 46.9515 501.65 41.079C502.621 39.7364 503.698 36.2924 503.698 36.2924L505.43 36.1053C505.43 36.1053 506.914 42.769 507.25 45.6225C507.61 48.3764 512.479 49.9629 512.572 44.5618C512.406 42.7098 511.772 40.2039 510.573 37.0192C510.573 37.0192 509.79 34.6867 509.024 34.3811C509.024 34.3811 509.335 34.0971 509.862 32C510.415 29.8032 509.816 27.884 505.546 31.454C505.93 27.8309 502.487 26.7821 501.362 30Z" fill="white"/>
<path fill-rule="evenodd" clip-rule="evenodd" d="M583.669 30.7548C583.34 27.6525 586.442 24.9359 588.284 31.7655C590.165 36.1118 590.634 44.8221 591.406 45.558C592.179 46.2939 597.24 44.6719 598.595 44.083C599.95 43.4955 602.586 43.8399 602.134 45.2441C601.794 46.6663 600.473 46.9257 600.211 47.1135C599.95 47.302 588.588 51.7645 587.939 49.5892C587.292 47.4133 587.165 46.3961 586.363 42.6618C585.561 38.9261 583.999 33.8569 583.669 30.7548Z" fill="white"/>
<path fill-rule="evenodd" clip-rule="evenodd" d="M571.362 33.5322C571.344 29.9316 575.088 27.1722 576.364 35.2285C577.963 40.4378 578.279 51.429 578.279 51.429C578.279 51.429 578.515 53.7604 578.189 54.7293C577.653 56.323 576.327 55.9658 576.327 55.9658C576.327 55.9658 574.32 55.4479 573.844 52.8746C573.37 50.3009 573.484 51.8991 573.014 47.5179C572.543 43.135 571.379 37.1326 571.362 33.5322Z" fill="white"/>
<path fill-rule="evenodd" clip-rule="evenodd" d="M480.768 10.6152C487.248 10.8008 491.35 12.0966 493.402 14.8674C494.335 16.8963 493.573 20.2934 491.607 22.358C489.776 24.0749 487.86 25.1969 487.86 25.1969C490.415 27.275 490.593 31.3759 488.723 35.3613C486.855 39.3477 481.236 40.5665 473.578 38.5798C471.07 37.8005 468.833 36.3229 469.224 35.5079C470.116 34.0004 476.23 13.0787 476.23 13.0787C476.757 11.9141 476.955 10.3889 480.768 10.6152ZM480.647 14.9726L479.341 22.007C479.341 22.007 486.452 23.3892 487.801 19.8923C489.147 16.394 484.423 15.9063 480.647 14.9726ZM477.344 26.7821C477.344 26.7821 474.489 34.5983 474.623 34.2489C474.88 33.7838 484.18 37.5033 485.288 31.9934C486.395 26.4853 477.344 26.7821 477.344 26.7821Z" fill="white"/>
<path fill-rule="evenodd" clip-rule="evenodd" d="M507.721 17.5974C514.124 18.6146 518.025 20.427 519.704 23.4387C520.368 25.5706 519.176 28.8415 516.961 30.6363C514.924 32.1035 513.362 33 513.362 33L509.616 35.3733L500.165 34.148L502.904 19.457C503.577 18.3698 503.969 16.8826 507.721 17.5974ZM507.042 21.9031L504.842 28.7112C504.842 28.7112 511.716 30.9962 513.503 27.7017C515.288 24.4055 510.666 23.3144 507.042 21.9031ZM502.248 33.1899L500.165 34.148L509.616 35.3733L502.248 33.1899Z" fill="white"/>
<path d="M455.862 8L430 72H433.699L458.314 10L455.862 8Z" fill="#17171D"/>
<path d="M6.55375 117V61.56H20.1938V83.296H41.8418V61.56H55.4818V117H41.8418V95.176H20.1938V117H6.55375ZM102.428 117L98.9964 106.264H78.2284L74.7964 117H60.3644L79.9004 61.56H97.5004L117.212 117H102.428ZM81.7484 95.264H95.4764L88.6124 73.88L81.7484 95.264ZM157.24 95.176H171.056C170.176 99.8107 168.797 103.653 166.92 106.704C165.043 109.696 162.872 112.072 160.408 113.832C158.003 115.533 155.392 116.707 152.576 117.352C149.76 117.997 146.973 118.32 144.216 118.32C140.227 118.32 136.531 117.587 133.128 116.12C129.725 114.653 126.821 112.659 124.416 110.136C122.011 107.555 120.104 104.475 118.696 100.896C117.347 97.3173 116.672 93.4453 116.672 89.28C116.672 85.1147 117.317 81.2427 118.608 77.664C119.957 74.0853 121.805 71.0347 124.152 68.512C126.557 65.9307 129.461 63.9067 132.864 62.44C136.267 60.9733 140.051 60.24 144.216 60.24C146.973 60.24 149.76 60.592 152.576 61.296C155.392 62 158.003 63.232 160.408 64.992C162.872 66.752 165.043 69.128 166.92 72.12C168.797 75.112 170.176 78.8667 171.056 83.384H157.064C156.36 79.864 154.923 77.1947 152.752 75.376C150.581 73.4987 147.736 72.56 144.216 72.56C140.051 72.56 136.677 74.144 134.096 77.312C131.573 80.48 130.312 84.4693 130.312 89.28C130.312 94.0907 131.603 98.08 134.184 101.248C136.765 104.416 140.109 106 144.216 106C147.795 106 150.669 105.091 152.84 103.272C155.011 101.453 156.477 98.7547 157.24 95.176ZM176.882 117V61.56H190.522V86.2L208.65 61.56H223.874L204.074 88.048L226.338 117H209.53L190.522 90.952V117H176.882ZM283.138 95.176H296.954C296.074 99.8107 294.696 103.653 292.818 106.704C290.941 109.696 288.77 112.072 286.306 113.832C283.901 115.533 281.29 116.707 278.474 117.352C275.658 117.997 272.872 118.32 270.114 118.32C266.125 118.32 262.429 117.587 259.026 116.12C255.624 114.653 252.72 112.659 250.314 110.136C247.909 107.555 246.002 104.475 244.594 100.896C243.245 97.3173 242.57 93.4453 242.57 89.28C242.57 85.1147 243.216 81.2427 244.506 77.664C245.856 74.0853 247.704 71.0347 250.05 68.512C252.456 65.9307 255.36 63.9067 258.762 62.44C262.165 60.9733 265.949 60.24 270.114 60.24C272.872 60.24 275.658 60.592 278.474 61.296C281.29 62 283.901 63.232 286.306 64.992C288.77 66.752 290.941 69.128 292.818 72.12C294.696 75.112 296.074 78.8667 296.954 83.384H282.962C282.258 79.864 280.821 77.1947 278.65 75.376C276.48 73.4987 273.634 72.56 270.114 72.56C265.949 72.56 262.576 74.144 259.994 77.312C257.472 80.48 256.21 84.4693 256.21 89.28C256.21 94.0907 257.501 98.08 260.082 101.248C262.664 104.416 266.008 106 270.114 106C273.693 106 276.568 105.091 278.738 103.272C280.909 101.453 282.376 98.7547 283.138 95.176ZM302.78 117V61.56H316.42V105.12H341.324V117H302.78ZM346.608 61.56H360.248V93.768C360.248 97.64 361.099 100.661 362.8 102.832C364.502 104.944 366.936 106 370.104 106C373.272 106 375.707 104.944 377.408 102.832C379.11 100.661 379.96 97.64 379.96 93.768V61.56H393.6V93.856C393.6 101.424 391.518 107.408 387.352 111.808C383.187 116.149 377.438 118.32 370.104 118.32C362.771 118.32 357.022 116.149 352.856 111.808C348.691 107.408 346.608 101.424 346.608 93.856V61.56ZM401.523 117V61.56H423.699C427.16 61.56 430.123 61.9707 432.587 62.792C435.051 63.5547 437.045 64.6107 438.571 65.96C440.096 67.2507 441.211 68.8053 441.915 70.624C442.619 72.384 442.971 74.2613 442.971 76.256C442.971 78.4853 442.325 80.6853 441.035 82.856C439.803 84.968 437.632 86.6693 434.523 87.96C438.923 89.2507 441.797 91.0987 443.147 93.504C444.496 95.9093 445.171 98.1973 445.171 100.368C445.171 105.179 443.528 109.168 440.243 112.336C436.957 115.445 432 117 425.371 117H401.523ZM422.291 71.68H415.163V84H421.763C424.403 84 426.309 83.5013 427.483 82.504C428.656 81.5067 429.243 79.864 429.243 77.576C429.243 75.5227 428.627 74.0267 427.395 73.088C426.163 72.1493 424.461 71.68 422.291 71.68ZM423.787 93.68H415.163V106.88H423.611C426.075 106.88 427.981 106.352 429.331 105.296C430.739 104.181 431.443 102.539 431.443 100.368C431.443 98.1387 430.768 96.4667 429.419 95.352C428.069 94.2373 426.192 93.68 423.787 93.68Z" fill="#EC3750"/>
<defs>
<linearGradient id="paint0_linear" x1="541.112" y1="0" x2="541.112" y2="66.5841" gradientUnits="userSpaceOnUse">
<stop offset="0.073433" stop-color="#FEDF00"/>
<stop offset="0.484899" stop-color="#009B3A"/>
<stop offset="0.81303" stop-color="#0056A6"/>
</linearGradient>
</defs>
</svg>
