<svg width="210" height="210" viewBox="0 0 210 210" fill="none" xmlns="http://www.w3.org/2000/svg">
<path d="M104.872 164.968C130.292 164.968 146.856 151.192 146.856 131.84C146.856 116.588 135.048 107.896 123.076 105.108C135.212 101.5 144.396 92.644 144.396 79.032C144.396 61.156 128.488 48.364 104.544 48.364C85.356 48.364 72.236 56.892 63.216 68.208L75.352 80.672C83.06 72.144 91.588 66.732 102.74 66.732C114.876 66.732 123.732 73.128 123.732 82.312C123.732 92.152 115.04 97.564 101.756 97.4H89.128V115.112L101.756 114.948C117.664 114.948 126.028 120.196 126.028 130.2C126.028 140.04 117.664 146.764 104.216 146.764C92.08 146.764 81.256 141.352 73.384 132.496L60.92 145.944C70.104 156.932 85.192 164.968 104.872 164.968Z" fill="#338EDA"/>
<circle cx="105" cy="105" r="96" stroke="#338EDA" stroke-width="18"/>
</svg>
