<svg width="61" height="61" viewBox="0 0 61 61" fill="none" xmlns="http://www.w3.org/2000/svg">
<rect width="61" height="61" rx="18" fill="white"/>
<path fill-rule="evenodd" clip-rule="evenodd" d="M19.5 18V25.9305L30.081 28.173C31.023 28.3725 31.53 29.1705 31.5645 29.919C31.5645 29.9325 31.566 29.952 31.566 29.97C31.566 29.976 31.566 29.982 31.566 29.988C31.566 29.9955 31.566 30.0015 31.566 30.0075C31.566 30.0255 31.5645 30.045 31.5645 30.0585C31.53 30.8055 31.023 31.605 30.081 31.8045L19.5 34.047V42.4875C19.53 42.489 19.5735 42.4845 19.635 42.462C26.214 40.176 42.75 30.75 42.75 30C42.75 29.25 26.1375 20.2905 19.635 18.024C19.5735 18.003 19.53 17.9985 19.5 18V18ZM45.8325 29.988V29.9715V29.967C45.816 28.92 45.2475 28.0335 44.445 27.4395C38.9985 23.4075 27.177 17.4765 20.622 15.192C19.686 14.865 18.672 14.955 17.8575 15.4695C17.0265 15.993 16.5 16.9065 16.5 17.97V26.538C16.5 27.6 17.244 28.518 18.2835 28.7385L24.18 29.988L18.2835 31.239C17.244 31.458 16.5 32.376 16.5 33.4395V42.5175C16.5 43.581 17.0265 44.493 17.8575 45.018C18.672 45.5325 19.686 45.6225 20.622 45.2955C27.1785 43.005 39.057 36.5205 44.4435 32.538C45.2475 31.9425 45.816 31.0575 45.831 30.0105V30.006L45.8325 29.988V29.988Z" fill="#095365"/>
</svg>
