<?xml version="1.0"?>
<svg xmlns="http://www.w3.org/2000/svg" xmlns:xlink="http://www.w3.org/1999/xlink" xmlns:svgjs="http://svgjs.com/svgjs" version="1.1" width="512" height="512" x="0" y="0" viewBox="0 0 512 512" style="enable-background:new 0 0 512 512" xml:space="preserve" class=""><g><path xmlns="http://www.w3.org/2000/svg" d="m256 512h-96c-13.255 0-24-10.745-24-24v-38c0-5.523 4.477-10 10-10h124c5.523 0 10 4.477 10 10v38c0 13.255-10.745 24-24 24z" fill="#2d8cff" data-original="#000000" style="" class=""/><path xmlns="http://www.w3.org/2000/svg" d="m491.132 150.597c-13.066-8.075-29.07-8.796-42.81-1.926-.292.146-.582.298-.868.457l-47.454 26.203v-27.331c0-24.262-19.738-44-44-44h-312c-24.262 0-44 19.738-44 44v216c0 24.262 19.738 44 44 44h312c24.262 0 44-19.738 44-44v-27.331l47.454 26.204c.286.158.576.31.868.457 6.263 3.131 12.993 4.685 19.704 4.685 8.013 0 15.995-2.217 23.105-6.611 13.068-8.077 20.869-22.069 20.869-37.43v-135.948c0-15.361-7.801-29.353-20.868-37.429zm-379.132 137.403c-39.701 0-72-32.299-72-72s32.299-72 72-72 72 32.299 72 72-32.299 72-72 72z" fill="#2d8cff" data-original="#000000" style="" class=""/><circle xmlns="http://www.w3.org/2000/svg" cx="112" cy="216" r="24" fill="#2d8cff" data-original="#000000" style="" class=""/></g></svg>
