<?xml version="1.0"?>
<svg xmlns="http://www.w3.org/2000/svg" xmlns:xlink="http://www.w3.org/1999/xlink" xmlns:svgjs="http://svgjs.com/svgjs" version="1.1" width="512" height="512" x="0" y="0" viewBox="0 0 512 512" style="enable-background:new 0 0 512 512" xml:space="preserve" class=""><g><path xmlns="http://www.w3.org/2000/svg" d="m509.46875 257.09375c-1.226562-15.636719-14.976562-27.519531-30.601562-26.484375-5.066407.335937-10.132813.65625-15.203126.96875v-18.515625c0-117.484375-95.578124-213.0625-213.0625-213.0625-117.484374 0-213.0625 95.578125-213.0625 213.0625v17.96875c-2.28125-.144531-4.5625-.292969-6.84375-.445312-15.660156-1.03125-29.0625 10.382812-30.558593 25.984374-.753907 7.820313 1.636719 15.425782 6.726562 21.414063 5.09375 5.992187 12.214844 9.574219 20.058594 10.09375 75.820313 5.007813 152.113281 7.511719 228.402344 7.511719 75.972656 0 151.933593-2.484375 227.3125-7.453125 7.746093-.511719 14.8125-4.027344 19.894531-9.898438 5.085938-5.875 7.546875-13.371093 6.9375-21.144531zm-456.929688-44.03125c0-109.210938 88.851563-198.0625 198.0625-198.0625 109.210938 0 198.0625 88.851562 198.0625 198.0625v19.402344c-5.644531.320312-11.296874.628906-16.945312.921875v-20.324219c0-99.867188-81.25-181.113281-181.117188-181.113281-99.867187 0-181.113281 81.246093-181.113281 181.113281v19.863281c-5.652343-.308593-11.304687-.632812-16.949219-.96875zm364.175782 21.070312c-110.480469 5.238282-221.789063 5.097657-332.226563-.425781v-20.644531c0-91.597656 74.515625-166.113281 166.113281-166.113281 91.597657 0 166.113282 74.519531 166.113282 166.113281zm74.476562 34.289063c-2.4375 2.816406-5.824218 4.503906-9.539062 4.746094-150.414063 9.910156-303.074219 9.894531-453.742188-.058594-3.757812-.25-7.171875-1.964844-9.613281-4.839844-2.441406-2.871093-3.589844-6.515625-3.226563-10.265625.6875-7.160156 6.613282-12.480468 13.695313-12.480468.3125 0 .625.007812.941406.03125 149.34375 9.863281 300.796875 9.871093 450.148438.019531 7.484375-.476563 14.070312 5.199219 14.660156 12.726562.292969 3.710938-.886719 7.304688-3.324219 10.121094zm0 0" fill="#ffdb4e" data-original="#000000" style="" class=""/><path xmlns="http://www.w3.org/2000/svg" d="m465.179688 303.804688c-4.136719-.417969-7.804688 2.574218-8.226563 6.691406-.53125 5.136718-1.160156 10.5-1.914063 16.050781-20.652343 1.179687-41.339843 2.179687-62.0625 3l1.144532-13.859375c.339844-4.128906-2.730469-7.75-6.859375-8.09375-4.132813-.34375-7.75 2.730469-8.089844 6.859375l-1.292969 15.65625c-17.484375.621094-34.984375 1.109375-52.5 1.472656l.589844-14.292969c.171875-4.140624-3.046875-7.632812-7.183594-7.800781-4.105468-.1875-7.632812 3.042969-7.800781 7.183594l-.628906 15.191406c-17.410157.289063-34.832031.453125-52.253907.488281v-14.789062c0-4.144531-3.359374-7.5-7.5-7.5-4.144531 0-7.5 3.355469-7.5 7.5v14.789062c-17.421874-.035156-34.84375-.199218-52.257812-.488281l-.632812-15.375c-.171876-4.140625-3.695313-7.371093-7.800782-7.183593-4.140625.167968-7.355468 3.664062-7.1875 7.800781l.597656 14.480469c-17.511718-.363282-35.015624-.855469-52.496093-1.472657l-1.324219-16.027343c-.339844-4.128907-3.96875-7.199219-8.09375-6.859376-4.125.34375-7.195312 3.964844-6.855469 8.09375l1.175781 14.226563c-20.722656-.820313-41.414062-1.820313-62.0625-2.996094-.789062-5.804687-1.445312-11.40625-1.984374-16.761719-.417969-4.117187-4.085938-7.105468-8.21875-6.703124-4.121094.417968-7.125 4.09375-6.707032 8.214843 5.011719 49.46875 19.339844 119.671875 59.128906 173.21875 12.789063 17.207031 33.234376 27.480469 54.695313 27.480469h215.046875c21.460938 0 41.90625-10.273438 54.695312-27.484375 39.636719-53.339844 53.988282-123.238281 59.054688-172.484375.421875-4.121094-2.574219-7.804688-6.695312-8.226562zm-12.449219 37.898437c-2.335938 13.832031-5.457031 28.472656-9.613281 43.316406-18.277344.984375-36.589844 1.824219-54.929688 2.527344l3.546875-42.941406c20.363281-.792969 40.699219-1.761719 60.996094-2.902344zm-32.378907 102.28125c-12.300781.582031-24.617187 1.101563-36.949218 1.558594l3.542968-42.9375c17.203126-.648438 34.382813-1.421875 51.53125-2.320313-4.851562 14.773438-10.8125 29.539063-18.125 43.699219zm-162.25 53.015625v-34.019531c15.625-.03125 31.25-.164063 46.863282-.398438l-1.417969 34.417969zm-60.445312 0-1.417969-34.417969c15.613281.234375 31.238281.367188 46.863281.398438v34.019531zm-134.933594-96.714844c17.152344.898438 34.332032 1.671875 51.535156 2.320313l3.542969 42.9375c-12.332031-.457031-24.652343-.976563-36.953125-1.558594-7.308594-14.15625-13.269531-28.921875-18.125-43.699219zm66.628906 2.859375c16.476563.550781 32.972657.992188 49.476563 1.316407l1.765625 42.851562c-15.914062-.308594-31.816406-.722656-47.699219-1.246094zm64.5 1.585938c16.410157.253906 32.828126.402343 49.25.433593v42.816407c-15.832031-.03125-31.664062-.167969-47.484374-.410157zm64.25 43.25v-42.816407c16.417969-.035156 32.839844-.179687 49.25-.4375l-1.765624 42.84375c-15.820313.242188-31.652344.378907-47.484376.410157zm64.273438-43.519531c16.503906-.324219 33-.765626 49.472656-1.316407l-3.542968 42.921875c-15.878907.523438-31.78125.9375-47.695313 1.246094zm54.261719-59.296876-3.542969 42.929688c-16.683594.566406-33.386719 1.015625-50.097656 1.351562l1.765625-42.847656c17.304687-.351562 34.597656-.832031 51.875-1.433594zm-66.898438 1.710938-1.765625 42.84375c-16.617187.261719-33.246094.410156-49.871094.445312v-42.8125c17.214844-.035156 34.429688-.195312 51.636719-.476562zm-66.636719.476562v42.8125c-16.628906-.035156-33.253906-.183593-49.871093-.445312l-1.765625-42.84375c17.207031.28125 34.421875.441406 51.636718.476562zm-66.660156-.75 1.765625 42.847657c-16.710937-.335938-33.414062-.789063-50.09375-1.355469l-3.546875-42.929688c17.277344.605469 34.570313 1.082032 51.875 1.4375zm-66.972656-1.996093 3.546875 42.941406c-18.339844-.703125-36.652344-1.542969-54.933594-2.527344-4.15625-14.832031-7.273437-29.472656-9.613281-43.316406 20.300781 1.140625 40.636719 2.109375 61 2.902344zm-9.046875 130.960937c-3.882813-5.226562-7.511719-10.628906-10.902344-16.167968 9.832031.441406 19.675781.839843 29.527344 1.199218l2.628906 31.878906c-8.335937-3.671874-15.714843-9.457031-21.253906-16.910156zm36.652344 21.089844-2.933594-35.539062c15.671875.503906 31.367187.90625 47.074219 1.207031l1.429687 34.675781h-39.566406c-2.015625 0-4.019531-.117188-6.003906-.34375zm181.484375.34375 1.429687-34.675781c15.707031-.300781 31.402344-.703125 47.074219-1.207031l-2.933594 35.539062c-1.984375.226562-3.988281.34375-6.003906.34375zm82.222656-21.433594c-5.539062 7.453125-12.917969 13.238282-21.253906 16.910156l2.632812-31.878906c9.851563-.359375 19.691406-.757812 29.523438-1.199218-3.390625 5.539062-7.019532 10.941406-10.902344 16.167968zm0 0" fill="#ffdb4e" data-original="#000000" style="" class=""/></g></svg>
