<svg width="61" height="61" viewBox="0 0 61 61" fill="none" xmlns="http://www.w3.org/2000/svg">
<rect width="61" height="61" rx="18" fill="white"/>
<path fill-rule="evenodd" clip-rule="evenodd" d="M49 30C49 15 46 12 31 12C16 12 13 15 13 30C13 45 16 48 31 48C46 48 49 45 49 30ZM43.504 42.504C45.1375 40.8705 46 37.65 46 30C46 26.79 45.8485 24.36 45.55 22.5H16.45C16.15 24.36 16 26.79 16 30C16 37.65 16.8625 40.8705 18.496 42.504C20.1295 44.1375 23.35 45 31 45C38.65 45 41.8705 44.1375 43.504 42.504ZM23.5 18C23.5 17.6022 23.658 17.2206 23.9393 16.9393C24.2206 16.658 24.6022 16.5 25 16.5H37C37.3978 16.5 37.7794 16.658 38.0607 16.9393C38.342 17.2206 38.5 17.6022 38.5 18C38.5 18.3978 38.342 18.7794 38.0607 19.0607C37.7794 19.342 37.3978 19.5 37 19.5H25C24.6022 19.5 24.2206 19.342 23.9393 19.0607C23.658 18.7794 23.5 18.3978 23.5 18V18Z" fill="#FB558E"/>
<path fill-rule="evenodd" clip-rule="evenodd" d="M34.801 29.508L29.5 34.809L27.199 32.508C26.9135 32.2486 26.5391 32.1091 26.1534 32.1183C25.7678 32.1276 25.4005 32.2849 25.1277 32.5577C24.8549 32.8305 24.6976 33.1978 24.6884 33.5834C24.6791 33.9691 24.8186 34.3435 25.078 34.629L27.1975 36.75L26.32 35.871L28.4185 37.971L28.438 37.992C28.5773 38.1317 28.7429 38.2424 28.9251 38.3179C29.1074 38.3933 29.3028 38.4319 29.5 38.4315C29.6973 38.4319 29.8927 38.3933 30.0749 38.3179C30.2572 38.2424 30.4227 38.1317 30.562 37.992L30.5815 37.971L36.922 31.629C37.0653 31.4906 37.1796 31.3251 37.2582 31.1421C37.3368 30.9591 37.3782 30.7623 37.3799 30.5631C37.3816 30.3639 37.3437 30.1664 37.2683 29.9821C37.1928 29.7977 37.0815 29.6303 36.9406 29.4894C36.7998 29.3486 36.6323 29.2372 36.448 29.1618C36.2636 29.0864 36.0661 29.0484 35.8669 29.0501C35.6678 29.0519 35.4709 29.0932 35.2879 29.1719C35.1049 29.2505 34.9394 29.3647 34.801 29.508V29.508Z" fill="#FB558E"/>
</svg>
