<svg width="61" height="61" viewBox="0 0 61 61" fill="none" xmlns="http://www.w3.org/2000/svg">
<rect width="61" height="61" rx="18" fill="white"/>
<path fill-rule="evenodd" clip-rule="evenodd" d="M46 32C46 40.2845 39.2845 47 31 47C22.7155 47 16 40.2845 16 32C16 23.7155 22.7155 17 31 17C39.2845 17 46 23.7155 46 32ZM49 32C49 41.9405 40.9405 50 31 50C21.0595 50 13 41.9405 13 32C13 22.0595 21.0595 14 31 14C40.9405 14 49 22.0595 49 32ZM22.75 32C23.9935 32 25 30.992 25 29.75C25 28.508 23.9935 27.5 22.75 27.5C21.5065 27.5 20.5 28.508 20.5 29.75C20.5 30.992 21.5065 32 22.75 32ZM41.5 29.75C41.5 30.992 40.4935 32 39.25 32C38.0065 32 37 30.992 37 29.75C37 28.508 38.0065 27.5 39.25 27.5C40.4935 27.5 41.5 28.508 41.5 29.75ZM31.0015 41.75C34.6765 41.75 37.8025 39.1775 38.5015 35.75C38.8495 34.04 34.0015 33.5 31.0015 33.5C28.0015 33.5 23.113 33.8465 23.5015 35.75C24.2005 39.1775 27.325 41.75 31.0015 41.75ZM34.0015 38.75C34.0015 38.75 32.6575 39.5 31.0015 39.5C29.344 39.5 28.0015 38.75 28.0015 38.75C28.0015 38.75 29.344 37.25 31.0015 37.25C32.6575 37.25 34.0015 38.75 34.0015 38.75Z" fill="#FF5858"/>
</svg>
